<svg xmlns="http://www.w3.org/2000/svg" viewBox="0 0 50 50"><defs></defs><path d="M41.985 35.281a.994.994 0 0 0 .526-.882l-.022-15.911h-.025a17.482 17.482 0 0 0-34.95.048h-.025l.022 15.911a.992.992 0 0 0 .529.881A37.442 37.442 0 0 0 24.994 39a37.289 37.289 0 0 0 16.991-3.719z" fill="#ffcc24"></path><path d="M7.514 22.524a17.482 17.482 0 0 1 34.95-.048h.025l.016 11.963c0-.013.006-.026.006-.04l-.022-15.911h-.025a17.482 17.482 0 0 0-34.95.048h-.025v3.988z" fill="#ffdd7d"></path><path d="M41.985 35.269a.993.993 0 0 0 .526-.881l-.022-15.912h-.025a17.482 17.482 0 0 0-34.95.048h-.025l.022 15.911a.992.992 0 0 0 .529.881 37.442 37.442 0 0 0 16.954 3.672 37.289 37.289 0 0 0 16.991-3.719z" fill="none" stroke="#45413c" stroke-linecap="round" stroke-linejoin="round" stroke-width="1.25px"></path><path d="M37.976 17.316a29.787 29.787 0 0 1-13.134-8.8 29.776 29.776 0 0 1-12.863 9.194l.2 13.185a17.441 17.441 0 0 0 26-.391z" fill="#ffe500"></path><path d="M37.976 17.316a29.787 29.787 0 0 1-13.134-8.8 29.776 29.776 0 0 1-12.863 9.194l.2 13.185a17.441 17.441 0 0 0 26-.391z" fill="none" stroke="#45413c" stroke-linecap="round" stroke-linejoin="round" stroke-width="1.25px"></path><circle cx="20.951" cy="19.438" r="1.35" fill="#45413c"></circle><circle cx="29.049" cy="19.316" r="1.35" fill="#45413c"></circle><path d="M23.056 24.807a2.5 2.5 0 0 1 2-1.38 2.5 2.5 0 0 1 2.045 1.319" fill="none" stroke="#45413c" stroke-linecap="round" stroke-linejoin="round" stroke-width="1.25px"></path><path d="M23.126 46.311c-2.462 2.482-6.047 2.918-8.008.974s-1.554-5.533.908-8.016c4.9-4.944 16.667-14.676 19.152-12.211s-7.149 14.309-12.052 19.253z" fill="#ffe500" stroke="#45413c" stroke-linecap="round" stroke-linejoin="round" stroke-width="1.25px"></path><path d="M16.026 39.269c-2.462 2.483-2.869 6.072-.908 8.016s5.546 1.508 8.008-.974A82.418 82.418 0 0 0 33.471 33.39l-4.611-4.573a82.415 82.415 0 0 0-12.834 10.452z" fill="#9f5ae5"></path><path d="M28.86 28.817a81.619 81.619 0 0 0-12.023 9.654L22.91 46.5c.07-.065.147-.116.216-.185A82.525 82.525 0 0 0 33.472 33.39z" fill="#803ec2"></path><path d="M16.025 39.269c-2.461 2.483-2.868 6.072-.907 8.016s5.546 1.508 8.008-.974A82.418 82.418 0 0 0 33.471 33.39l-4.611-4.573a82.472 82.472 0 0 0-12.835 10.452z" fill="none" stroke="#45413c" stroke-linecap="round" stroke-linejoin="round" stroke-width="1.25px"></path><path d="M28.136 46.236c2.535 2.407 6.132 2.735 8.033.732s1.387-5.577-1.148-7.984c-5.05-4.8-17.1-14.168-19.511-11.63s7.576 14.087 12.626 18.882z" fill="#ffe500" stroke="#45413c" stroke-linecap="round" stroke-linejoin="round" stroke-width="1.25px"></path><path d="M35.021 38.984c2.535 2.407 3.049 5.982 1.148 7.984s-5.5 1.675-8.033-.732a82.5 82.5 0 0 1-10.73-12.6l4.472-4.71a82.431 82.431 0 0 1 13.143 10.058z" fill="#9f5ae5" stroke="#45413c" stroke-linecap="round" stroke-linejoin="round" stroke-width="1.25px"></path></svg>